Coordinates
version=1
nRows=16
nColumns=28
inDegrees=yes

Units are S.I. units (second, meters, Newtons, ...)
Angles are in degrees.

endheader
time	pelvis_tilt	pelvis_list	pelvis_rotation	pelvis_tx	pelvis_ty	pelvis_tz	hip_flexion_r	hip_adduction_r	hip_rotation_r	knee_angle_r	ankle_angle_r	subtalar_angle_r	mtp_angle_r	hip_flexion_l	hip_adduction_l	hip_rotation_l	knee_angle_l	socket_flexion	socket_adduction	socket_rotation	socket_tx	socket_ty	socket_tz	foot_flex	lumbar_extension	lumbar_bending	lumbar_rotation
      0.97916667	      9.90285121	      2.33412347	     -5.93212852	      0.40318439	      1.03128518	      0.26663980	     -2.43718858	      1.64170715	      2.33956548	    -21.35980305	     10.79399469	     -7.78826595	     31.51783995	     -4.44322365	     -0.02770582	     -5.41453708	    -51.91293020	      0.00000000	      0.00000000	      0.00000000	      0.00000000	      0.00000000	      0.00000000	      5.03669161	    -18.37440508	     -3.16736883	     10.38890502
      0.98333333	      9.94286186	      2.48805341	     -6.17818426	      0.40792935	      1.03211397	      0.26707595	     -2.91250964	      1.38904414	      2.39397896	    -21.02496510	     10.74893657	     -7.59465915	     31.57789154	     -3.91392377	      0.06800353	     -5.33626021	    -51.65842020	      0.00000000	      0.00000000	      0.00000000	      0.00000000	      0.00000000	      0.00000000	      5.03267830	    -18.37662489	     -3.43238619	     10.54700360
      0.98750000	      9.97566398	      2.62624038	     -6.42355233	      0.41265146	      1.03288103	      0.26749701	     -3.37295927	      1.14625639	      2.43294890	    -20.70258046	     10.71070653	     -7.41110036	     31.63115291	     -3.37618482	      0.14822244	     -5.26224808	    -51.39354943	      0.00000000	      0.00000000	      0.00000000	      0.00000000	      0.00000000	      0.00000000	      5.03785530	    -18.38209966	     -3.67648819	     10.70280087
      0.99166667	      9.99990648	      2.76308644	     -6.66185208	      0.41734623	      1.03362424	      0.26789752	     -3.82642203	      0.91163862	      2.49436651	    -20.36971242	     10.65936456	     -7.19409951	     31.69258795	     -2.85235904	      0.24265251	     -5.13396669	    -51.04076877	      0.00000000	      0.00000000	      0.00000000	      0.00000000	      0.00000000	      0.00000000	      5.02773897	    -18.37680936	     -3.92113352	     10.89286143
      0.99583333	     10.02933228	      2.87574802	     -6.89863280	      0.42198642	      1.03437042	      0.26833973	     -4.26619046	      0.70150940	      2.53623635	    -20.07376430	     10.57732753	     -6.90079112	     31.79467042	     -2.35085659	      0.31009073	     -4.99934264	    -50.62971843	      0.00000000	      0.00000000	      0.00000000	      0.00000000	      0.00000000	      0.00000000	      4.98557332	    -18.38237808	     -4.16765273	     11.16647277
      1.00000000	     10.04741664	      2.97096922	     -7.12894259	      0.42649608	      1.03499451	      0.26866483	     -4.67113189	      0.49934166	      2.54735685	    -19.79755040	     10.54840849	     -6.70722419	     31.86298203	     -1.80892814	      0.36260578	     -4.87710261	    -50.26030114	      0.00000000	      0.00000000	      0.00000000	      0.00000000	      0.00000000	      0.00000000	      5.00903034	    -18.40155552	     -4.34726031	     11.33104240
      1.00416667	     10.04590890	      3.06040570	     -7.33731323	      0.43104466	      1.03560569	      0.26900277	     -5.07075021	      0.31307667	      2.57938578	    -19.50764109	     10.49753547	     -6.48195384	     31.93671375	     -1.27595572	      0.41506106	     -4.69065862	    -49.80234523	      0.00000000	      0.00000000	      0.00000000	      0.00000000	      0.00000000	      0.00000000	      4.98373870	    -18.38801952	     -4.53269181	     11.51418207
      1.00833333	     10.07659795	      3.03521234	     -7.58248920	      0.43506985	      1.03611480	      0.26939232	     -5.34748194	      0.24478597	      2.52076445	    -19.49286636	     10.49557824	     -6.45267722	     31.94712881	     -0.71669162	      0.32038968	     -4.60006841	    -49.44621873	      0.00000000	      0.00000000	      0.00000000	      0.00000000	      0.00000000	      0.00000000	      5.01216016	    -18.52782019	     -4.58799612	     11.53892791
      1.01250000	     10.01951964	      3.20308395	     -7.76116010	      0.43994547	      1.03659117	      0.26965783	     -5.72480133	     -0.05960340	      2.39818316	    -19.11066923	     10.37389348	     -5.49685117	     32.57749796	     -0.18707332	      0.47676385	     -4.34365598	    -48.83457243	      0.00000000	      0.00000000	      0.00000000	      0.00000000	      0.00000000	      0.00000000	      4.93450420	    -18.35675830	     -4.92199720	     12.20809671
      1.01666667	      9.98072388	      3.25667969	     -7.92887720	      0.44430482	      1.03703097	      0.26988173	     -6.06637860	     -0.20493779	      2.40915064	    -18.83998323	     10.35741524	     -5.37081302	     32.64434768	      0.38282912	      0.49565404	     -4.11149158	    -48.30885375	      0.00000000	      0.00000000	      0.00000000	      0.00000000	      0.00000000	      0.00000000	      4.92450974	    -18.34001971	     -5.01983896	     12.24306157
      1.02083333	      9.99500894	      3.22226394	     -8.14104587	      0.44817799	      1.03740146	      0.27020315	     -6.31503195	     -0.25902684	      2.36413809	    -18.82373227	     10.35349398	     -5.34591085	     32.65476196	      0.94236473	      0.39556199	     -3.98708356	    -47.86075460	      0.00000000	      0.00000000	      0.00000000	      0.00000000	      0.00000000	      0.00000000	      4.95219568	    -18.48506465	     -5.05986147	     12.25684344
      1.02500000	      9.84184760	      3.29789012	     -8.18650812	      0.45288653	      1.03771308	      0.27029693	     -6.68926150	     -0.39348826	      2.38821608	    -18.28121664	     10.19721465	     -5.03196132	     32.75976557	      1.57673570	      0.44946041	     -3.56522754	    -47.19122449	      0.00000000	      0.00000000	      0.00000000	      0.00000000	      0.00000000	      0.00000000	      4.85607133	    -18.26216026	     -5.18341873	     12.44109752
      1.02916667	      9.79545030	      3.26444685	     -8.34866351	      0.45701191	      1.03800161	      0.27050341	     -6.93528610	     -0.44221969	      2.37293475	    -18.18824765	     10.15923985	     -4.93186920	     32.80455959	      2.12091080	      0.37821739	     -3.30128504	    -46.56379442	      0.00000000	      0.00000000	      0.00000000	      0.00000000	      0.00000000	      0.00000000	      4.85495824	    -18.27881006	     -5.18371199	     12.50428509
      1.03333333	      9.77214313	      3.21703876	     -8.51672637	      0.46081503	      1.03821928	      0.27073807	     -7.16347167	     -0.47744956	      2.33771825	    -18.12935600	     10.14714619	     -4.88078686	     32.82267767	      2.68457878	      0.26786128	     -3.12815957	    -46.00494721	      0.00000000	      0.00000000	      0.00000000	      0.00000000	      0.00000000	      0.00000000	      4.86625401	    -18.39702518	     -5.22105052	     12.53647273
      1.03750000	      9.56891968	      3.22548330	     -8.50960870	      0.46541376	      1.03837370	      0.27078460	     -7.47664662	     -0.51421694	      2.34753207	    -17.61036059	     10.02949886	     -4.59687128	     32.90547667	      3.34370443	      0.24253765	     -2.66097427	    -45.25372907	      0.00000000	      0.00000000	      0.00000000	      0.00000000	      0.00000000	      0.00000000	      4.73293622	    -18.13799912	     -5.23349474	     12.71901149
      1.04166667	      9.35334182	      3.16072643	     -8.52404261	      0.46954266	      1.03835185	      0.27081796	     -7.61681650	     -0.48193786	      2.25367177	    -17.37376061	      9.86484493	     -4.35532952	     33.03278719	      4.07470946	      0.11290004	     -2.27262186	    -44.60276229	      0.00000000	      0.00000000	      0.00000000	      0.00000000	      0.00000000	      0.00000000	      4.70798120	    -17.97970740	     -5.18710858	     12.85236047
